<svg version="1.1" id="Layer_1" xmlns="http://www.w3.org/2000/svg" xmlns:xlink="http://www.w3.org/1999/xlink" x="0px" y="0px" viewBox="0 0 1024 1024" style="enable-background:new 0 0 1024 1024;" xml:space="preserve">
							<style type="text/css">
								.st0{display:none;}
								.st1{display:inline;}
								.st2{fill-rule:evenodd;clip-rule:evenodd;}
							</style>
							<g id="down" class="st0">
								<polygon class="st1" points="523.2,802.1 523.2,110.4 500.8,110.4 500.8,802.1 433.8,802.1 511.4,913.6 590.2,802.1 	"></polygon>
							</g>
							<g id="right" class="st0">
								<g id="Layer_1_1_" class="st1">
									<g id="icomoon-ignore">
									</g>
									<path d="M168.5,870.4c-3.8,0-7.7-1.5-10.6-4.4c-5.8-5.8-5.8-15.3,0-21.1l268.8-268.8c5.8-5.8,15.3-5.8,21.1,0
									c5.8,5.8,5.8,15.3,0,21.1L179.1,866C176.2,868.9,172.4,870.4,168.5,870.4L168.5,870.4z M571.7,736c-3.8,0-7.7-1.5-10.6-4.4
									L292.4,462.8c-5.8-5.8-5.8-15.3,0-21.1l44.8-44.8c2.8-2.8,6.6-4.4,10.6-4.4H461l134.4-134.4l-19.3-19.3c-5.8-5.8-5.8-15.3,0-21.1
									l59.7-59.7c5.8-5.8,15.3-5.8,21.1,0L866,367.1c5.9,5.8,5.9,15.3,0,21.1l-59.7,59.7c-5.8,5.8-15.3,5.8-21.1,0l-19.3-19.3L631.5,563
									v113.3c0,3.9-1.6,7.8-4.4,10.6l-44.8,44.8C579.4,734.5,575.5,736,571.7,736L571.7,736z"></path>
								</g>
								<g id="Gallery" class="st1">
									<g>
										<path d="M819.2,913.8V240.6c0-45.9,8.7-37.2-37.2-37.2H108.9c-45.9,0-37.2-8.7-37.2,37.2v673.2c0,45.9-8.7,37.2,37.2,37.2h673.2
										C828,951,819.2,959.7,819.2,913.8z M300.1,639.5L404,764.3l145.4-187.1l186.9,249.2H154.8L300.1,639.5z"></path>
										<path d="M952.3,110.2c0-45.9,8.7-37.2-37.2-37.2H241.9c-45.9,0-37.2-8.7-37.2,37.2v29h678.7v681.3h31.6
										c45.9,0,37.2,8.7,37.2-37.2L952.3,110.2L952.3,110.2z"></path>
									</g>
								</g>
								<g id="image" class="st1">
									<g>
										<path d="M885.8,848.6V175.4c0-45.9,8.7-37.2-37.2-37.2H175.4c-45.9,0-37.2-8.7-37.2,37.2v673.2c0,45.9-8.7,37.2,37.2,37.2h673.2
										C894.5,885.8,885.8,894.5,885.8,848.6z M366.6,574.3l103.8,124.8L615.8,512l186.9,249.2H221.3L366.6,574.3z"></path>
									</g>
								</g>
								<g id="Video" class="st1">
									<path d="M137.9,212.6v598.9h748.2V212.6H137.9z M647.7,524.8L434.1,657.1c-15.5,10.2-30,2.7-30-16.7V383.6
									c0-19.4,14.4-26.9,30-16.7l213.5,132.3c0,0,7.6,5.3,7.6,12.8C655.2,519.5,647.7,524.8,647.7,524.8z"></path>
								</g>
								<g id="quote" class="st1">
									<path d="M740.2,833.5c78.4,0,142.1-65.4,142.1-146.2c0-80.7-63.6-146.2-142.1-146.2c-142,0-47.4-282.6,142.1-282.6v-68.2
									C544.2,190.5,411.8,833.5,740.2,833.5L740.2,833.5z M331,833.5c78.4,0,142.1-65.4,142.1-146.2c0-80.7-63.6-146.2-142.1-146.2
									c-142,0-47.4-282.6,142.1-282.6v-68.2C135,190.5,2.5,833.5,331,833.5L331,833.5z"></path>
								</g>
								<g id="Link" class="st1">
									<path d="M871.4,332.3L691.7,152.6c-16.5-16.5-43.4-16.5-59.9,0L452.1,332.3c-16.6,16.5-16.6,43.4,0,59.9l29.9,29.9l179.7-179.7
									l119.8,119.8L601.9,542l30,30c16.5,16.5,43.4,16.5,59.9,0l179.7-179.7C887.9,375.7,887.9,348.8,871.4,332.3z M542,601.9
									L362.3,781.6L242.4,661.7L422.1,482l-30-30c-16.5-16.5-43.4-16.5-59.9,0L152.6,631.8c-16.5,16.6-16.5,43.4,0,59.9l179.7,179.7
									c16.5,16.5,43.4,16.5,59.9,0l179.7-179.7c16.6-16.5,16.6-43.4,0-59.9L542,601.9L542,601.9z M392.2,631.8
									c16.6,16.6,43.4,16.6,59.9,0l179.7-179.7c16.5-16.5,16.5-43.3,0-59.8c-16.6-16.6-43.4-16.6-59.9,0L392.2,571.9
									C375.7,588.5,375.7,615.2,392.2,631.8z"></path>
								</g>
								<g id="Status" class="st1">
									<path d="M137.9,246.3v531.5h748.2V246.3H137.9z M321.8,580.2c-37.7,0-68.2-30.6-68.2-68.2c0-37.7,30.6-68.2,68.2-68.2
									c37.7,0,68.2,30.6,68.2,68.2C390,549.7,359.5,580.2,321.8,580.2z M512,580.2c-37.7,0-68.2-30.6-68.2-68.2
									c0-37.7,30.6-68.2,68.2-68.2s68.2,30.6,68.2,68.2C580.2,549.7,549.7,580.2,512,580.2z M702.2,580.2c-37.7,0-68.2-30.6-68.2-68.2
									c0-37.7,30.6-68.2,68.2-68.2c37.7,0,68.2,30.6,68.2,68.2C770.5,549.7,739.9,580.2,702.2,580.2z"></path>
								</g>
								<g id="Chat" class="st1">
									<path d="M351.3,485.2c0-53.6,0-160.7,0-160.7s-133.9,0-160.7,0S137,351.3,137,378.1s0,241.1,0,267.9c0,26.8,26.8,53.6,53.6,53.6
									c26.8,0,53.6,0,53.6,0v160.7l162.4-160.7c0,0,135.6,0,160.7,0c25.1,0,51.9-26.8,51.9-53.6c0-26.8,0-53.6,0-53.6s-107.1,0-160.7,0
									C404.9,592.4,351.3,538.8,351.3,485.2z M833.4,163.8c-26.8,0-348.2,0-375,0s-53.6,26.8-53.6,53.6s0,241.1,0,267.9
									s26.8,53.6,53.6,53.6s159,0,159,0l162.4,160.7V538.8c0,0,26.8,0,53.6,0c26.8,0,53.6-26.8,53.6-53.6s0-241.1,0-267.9
									C887,190.6,860.2,163.8,833.4,163.8z"></path>
								</g>
								<polygon class="st1" points="802.1,523.2 110.4,523.2 110.4,500.8 802.1,500.8 802.1,433.8 913.6,511.4 802.1,590.2 	"></polygon>
							</g>
							<g id="left" class="st0">
								<polygon class="st1" points="221.9,523.2 913.6,523.2 913.6,500.8 221.9,500.8 221.9,433.8 110.4,511.4 221.9,590.2 	"></polygon>
							</g>
							<g id="x" class="st0">
								<polygon class="st1" points="913.2,166.1 857.9,110.8 512,456.7 166.1,110.8 110.8,166.1 456.7,512 110.8,857.9 166.1,913.2
								512,567.3 857.9,913.2 913.2,857.9 567.3,512 	"></polygon>
							</g>
							<g id="Search" class="st0">
								<path class="st1" d="M920,856.5L711.4,643.3c43-56.4,68.6-126.8,68.6-203.1c0-185-150-335-334.9-335c-185,0-334.9,150-334.9,335
								s150,335,334.9,335c80.4,0,154.1-28.3,211.9-75.5l209.1,209.1L920,856.5z M445.1,685.8c-135.7,0-245.6-110-245.6-245.7
								c0-135.6,109.9-245.6,245.6-245.6s245.6,110,245.6,245.6C690.7,575.8,580.7,685.8,445.1,685.8z"></path>
							</g>
							<g id="Open_-_Sidebar" class="st0">
								<g class="st1">
									<g>
										<path d="M165.2,447c-35.8,0-64.9,29.1-64.9,65c0,35.9,29,65,64.9,65c35.8,0,64.9-29.1,64.9-65C230.1,476.1,201,447,165.2,447z
										M512,447c-36.1,0-65.5,29.1-65.5,65c0,35.9,29.3,65,65.5,65c36.1,0,65.5-29.1,65.5-65C577.5,476.1,548.1,447,512,447z
										M858.8,447c-35.8,0-64.9,29.1-64.9,65c0,35.9,29.1,65,64.9,65c35.8,0,64.9-29.1,64.9-65C923.7,476.1,894.6,447,858.8,447z"></path>
									</g>
								</g>
							</g>
							<g id="Drop-down" class="st0">
								<path class="st1" d="M512,615.2l276.5-389.8h124.7L512,798.6L110.8,225.4h124.7L512,615.2z"></path>
							</g>
							<g id="Drop-up" class="st0">
								<path class="st1" d="M235.5,798.6H110.8L512,225.4l401.2,573.1H788.5L512,408.8L235.5,798.6z"></path>
							</g>
							<g id="Video_1_" class="st0">
								<path class="st1" d="M166.4,942.8l-0.3-861.6l691.8,423.3L166.4,942.8z M248.4,810.8l474.3-306.3L248.2,214.3L248.4,810.8z"></path>
							</g>
							<g id="Menu" class="st0">
								<g class="st1">
									<g>
										<path d="M101.1,755.5h821.8v-60.9H101.1V755.5z M405.5,542.4h517.4v-60.9H405.5V542.4z M192.4,268.5v60.9h730.5v-60.9H192.4z"></path>
									</g>
								</g>
							</g>
							<g id="Quote" class="st0">
								<g class="st1">
									<path d="M100.2,675.4c98,0,163.4-65.4,163.4-163.4H100.2V152.5h359.5V512c0,215.7-143.8,359.5-359.5,359.5V675.4z M564.3,675.4
									c98,0,163.4-65.4,163.4-163.4H564.3V152.5h359.5V512c0,215.7-143.8,359.5-359.5,359.5V675.4z"></path>
								</g>
							</g>
							<g id="Link_1_" class="st0">
								<g class="st1">
									<path d="M98.5,98.5v827h827v-827H98.5z M856.6,856.6H167.4V167.4h689.2L856.6,856.6L856.6,856.6z"></path>
									<polygon points="353.4,739.5 607.1,485.7 718.8,597.4 718.8,305.2 426.6,305.2 538.3,416.9 284.5,670.6 		"></polygon>
								</g>
							</g>
							<path class="st2" d="M32,173.2L272.1,385L512,173.3L751.9,385L992,173.2v508.2c0,0,0,8.7,0,31.8c0,76-62.1,137.6-138.7,137.6H170.7
							C94.1,850.8,32,789.2,32,713.2c0-23,0-31.8,0-31.8V173.2z" style="outline: currentcolor;"></path>
						</svg>